<?xml version="1.0" encoding="UTF-8"?>
<svg version="1.1" viewBox="0 0 900 900" width="900" height="900" xmlns="http://www.w3.org/2000/svg">
<path transform="translate(428,4)" d="m0 0h42l34 3 32 5 25 6 31 9 29 11 24 11 23 12 25 15 17 12 13 10 11 9 14 12 13 12 14 14 7 8 12 14 13 17 11 15 12 19 14 25 11 22 10 24 12 36 9 36 5 31 3 32v51l-3 32-6 36-8 31-12 36-11 26-13 26-14 24-12 18-14 19-11 13-9 11-16 17-11 11-8 7-14 12-14 11-18 13-17 11-21 12-25 13-26 11-36 12-30 8-27 5-23 3-26 2h-40l-35-3-32-5-26-6-36-11-21-8-24-11-20-10-27-16-19-13-13-10-16-13-10-9-8-7-23-23-9-11-12-14-12-16-14-21-13-22-15-29-11-26-12-36-8-30-5-28-4-36-1-18v-27l2-30 5-37 6-27 8-28 10-29 12-27 10-20 14-24 9-14 13-18 13-16 9-11 14-15 5-6 8-7 8-8 11-9 14-12 19-14 15-10 15-9 22-12 22-11 25-10 33-11 36-9 32-5z" fill="#FDFDFD"/>
<path transform="translate(427,163)" d="m0 0 28 1 24 3 28 6 27 9 25 11 18 10 18 12 5 3v2l5 2 11 10 11 9 7 7 2 1 171 1-13 41-9 28-1 1h-173l-3 11-16 49-9 28 42 1h130l-6 20-3 9h41l-2 9-24 73-16 50-27 82-5 16-1 1-52 1-8 7-5 5-10 9-17 12-20 13-24 12-26 10-24 7-20 4-21 3-26 1-23-1-30-4-17-4-26-8-18-7-19-10-21-12-16-12-13-10-16-15-15-13-16-15-11-12-8-10-9-12-14 41-6 19h-78l9-28-40-1 2-9 23-70 16-50 27-82 16-50 27-82 14-43 1-3 31-1 17-16 12-10 4-3h2v-2l20-13 17-10 19-9 24-9 25-7 30-5z" fill="#DC626D"/>
<path transform="translate(198,250)" d="m0 0h77l-8 26-20 61-16 50-7 21h95l14-42 16-50 21-64 1-2h77l-8 26-20 61-16 50-26 79-14 43-20 62-22 67-1 2h-77l6-20 26-79 16-50 4-12h-96l-2 9-23 70-16 50-10 30-1 1h-76l2-9 23-70 16-50 27-82 16-50 27-82 14-43z"/>
<path transform="translate(557,250)" d="m0 0h250l-13 41-9 28-1 1h-173l-3 11-16 49-9 28 42 1h130l-6 20-21 65-20 61-16 50-12 35h-250l9-29 13-40 1-1h173l3-11 17-52 9-29-10 1h-162l2-9 19-58 16-50 27-82z"/>
<path transform="translate(746,438)" d="m0 0h41l-2 9-24 73-16 50-27 82-5 16-1 1-52 1-8 7-5 5-10 9-17 12-20 13-24 12-26 10-24 7-20 4-21 3-26 1-23-1-30-4-17-4-26-8-18-7-19-10-21-12-16-12-13-10-14-13v-2h83l21 7 27 6 25 3h28l31-4 18-4 23-8-56-1 2-9 7-20h209l3-11 23-70 16-50 23-70z" fill="#DA4A54"/>
<path transform="translate(438,279)" d="m0 0h42l-2 9-19 58-14 43-20 62-24 73-16 50-26 79-5 16-29 1-64 1-10-9-8-7-13-12-12-13-8-10-9-12-14 41-6 19h-78l9-28 1-1 35-1 25-76 14-43 13-40h96l-2 9-16 49-14 43-16 49-3 10 76 1 3-11 23-70 16-50 27-82 16-50 27-82z" fill="#DA4A54"/>
<path transform="translate(427,163)" d="m0 0 28 1 24 3 28 6 27 9 25 11 18 10 18 12 5 3v2l5 2 11 10 11 9 9 9h-79l-1 2-3-3-19-7-26-7-9-1-10-2-19-1h-24l-16 2-21 3-17 4-20 7-20 9-17 9-16 11-9 7-5 5-19 58-14 43-6 19-1 1h-42l13-41 24-73 14-44-45-1 6-7 8-7 11-10 8-6h2v-2l20-13 17-10 19-9 24-9 25-7 30-5z" fill="#DA4A54"/>
<path transform="translate(797,278)" d="m0 0 42 1-3 11-18 55-1 4h-102l9 21 9 27 2 8v4l-57 1h-53l-43-1 13-41 15-46 1-2 173-1 12-37z" fill="#DA4A54"/>
<path transform="translate(262,670)" d="m0 0h83l21 7 27 6 25 3h28l31-4 18-4 23-8h84l-4 4-10 7-13 8-18 10-23 10-33 10-26 5-29 3h-38l-18-2-29-6-26-8-24-10-19-10-13-8-13-9-4-2z"/>
<path transform="translate(427,163)" d="m0 0 28 1 24 3 28 6 27 9 25 11 18 10 18 12 4 4h-86l-20-6-23-5-19-2h-39l-24 3-28 7-9 3h-86l5-5 22-14 21-11 28-11 24-7 26-5 18-2z"/>
<path transform="translate(645,478)" d="m0 0h10l-1 7-8 25-1-2h-131l3-11 6-18z" fill="#DA4A54"/>
<path transform="translate(233,508)" d="m0 0h53l-1 8-22 67-5 16h-2l-12-21-8-18-6-17-4-15 6-19z" fill="#DC626D"/>
<path transform="translate(644,349)" d="m0 0h24l11 20 2 5 7 19 4 11v5l-14 1h-53l-1-2 19-58z" fill="#DC626D"/>
<path transform="translate(264,218)" d="m0 0 66 1-5 4-16 9-20 14-11 9-5 3 1-7-45-1 6-7 8-7 11-10 8-6h2z" fill="#DC626D"/>
<path transform="translate(205,593)" d="m0 0 3 4 8 15 2 3v3h2l8 13 8 11 4 5v2h2l4 6 5 5h-3l-8-8-8-7-15-16-7-9-9-12 1-7z" fill="#DC626D"/>
<path transform="translate(599,218)" d="m0 0 1 2 5 2 11 10 11 9h-3l-8-6-9-5-17-10v-1z" fill="#DD636E"/>
</svg>
